<?xml version="1.0" encoding="UTF-8" standalone="no"?>
<!-- Created with Inkscape (http://www.inkscape.org/) -->

<svg
   xmlns:dc="http://purl.org/dc/elements/1.1/"
   xmlns:cc="http://creativecommons.org/ns#"
   xmlns:rdf="http://www.w3.org/1999/02/22-rdf-syntax-ns#"
   xmlns:svg="http://www.w3.org/2000/svg"
   xmlns="http://www.w3.org/2000/svg"
   xmlns:sodipodi="http://sodipodi.sourceforge.net/DTD/sodipodi-0.dtd"
   xmlns:inkscape="http://www.inkscape.org/namespaces/inkscape"
   width="252.00002"
   height="82.440887"
   viewBox="0 0 66.675002 21.812484"
   version="1.1"
   id="svg1055"
   inkscape:version="0.92.0 r15299"
   sodipodi:docname="ahold delhaize.svg">
  <defs
     id="defs1049" />
  <sodipodi:namedview
     id="base"
     pagecolor="#ffffff"
     bordercolor="#666666"
     borderopacity="1.0"
     inkscape:pageopacity="0.0"
     inkscape:pageshadow="2"
     inkscape:zoom="3.1825395"
     inkscape:cx="126.00001"
     inkscape:cy="41.220444"
     inkscape:document-units="mm"
     inkscape:current-layer="layer1"
     showgrid="false"
     fit-margin-top="0"
     fit-margin-left="0"
     fit-margin-right="0"
     fit-margin-bottom="0"
     units="px"
     inkscape:window-width="1280"
     inkscape:window-height="744"
     inkscape:window-x="-4"
     inkscape:window-y="-4"
     inkscape:window-maximized="1" />
  <metadata
     id="metadata1052">
    <rdf:RDF>
      <cc:Work
         rdf:about="">
        <dc:format>image/svg+xml</dc:format>
        <dc:type
           rdf:resource="http://purl.org/dc/dcmitype/StillImage" />
        <dc:title></dc:title>
      </cc:Work>
    </rdf:RDF>
  </metadata>
  <g
     inkscape:label="Layer 1"
     inkscape:groupmode="layer"
     id="layer1"
     transform="translate(7.4917318,-189.12045)">
    <g
       id="g971"
       transform="matrix(0.11585911,0,0,0.11585911,-7.352723,189.246)"
       style="fill:#00c81e;fill-opacity:1;stroke-width:2.28366446">
      <path
         id="path867"
         d="m 530.5,152.5 0.3,-1.2 c 2,-7.1 8.1,-11.8 15.2,-11.8 7.9,0 13.2,4.3 14.6,11.9 l 0.2,1.1 z m 16.4,-22.1 c -15.4,0 -26.9,11.7 -26.9,27.2 0,15.5 11.7,27.2 27.2,27.2 8.2,0 16,-3.2 20.9,-8.5 l -6.8,-7.2 c -2.4,2.4 -7.1,5.8 -14.2,5.8 -8.7,0 -15.3,-5.5 -16.6,-13.8 L 530.3,160 H 572 v -2.3 c -0.8,-16.9 -10.4,-27.3 -25.1,-27.3"
         inkscape:connector-curvature="0"
         style="fill:#00c81e;fill-opacity:1;stroke-width:2.28366446" />
      <path
         id="path869"
         d="m 260.8,152.5 0.3,-1.2 c 2,-7.1 8.1,-11.8 15.2,-11.8 7.9,0 13.2,4.3 14.6,11.9 l 0.2,1.1 z m 16.4,-22.1 c -15.4,0 -26.9,11.7 -26.9,27.2 0,15.5 11.7,27.2 27.2,27.2 8.2,0 16,-3.2 20.9,-8.5 l -6.8,-7.2 c -2.4,2.4 -7.1,5.8 -14.2,5.8 -8.7,0 -15.3,-5.5 -16.6,-13.8 l -0.2,-1.1 h 41.7 v -2.3 c -0.8,-16.9 -10.4,-27.3 -25.1,-27.3"
         inkscape:connector-curvature="0"
         style="fill:#00c81e;fill-opacity:1;stroke-width:2.28366446" />
      <path
         id="path871"
         d="m 456.9,107.3 c -4.1,0 -7.3,3.3 -7.3,7.3 0,4.1 3.3,7.4 7.3,7.4 4.1,0 7.4,-3.3 7.4,-7.4 0,-4 -3.3,-7.3 -7.4,-7.3"
         inkscape:connector-curvature="0"
         style="fill:#00c81e;fill-opacity:1;stroke-width:2.28366446" />
      <rect
         id="rect873"
         height="75.400002"
         width="10.1"
         y="108.4"
         x="311.5"
         style="fill:#00c81e;fill-opacity:1;stroke-width:2.28366446" />
      <rect
         id="rect875"
         height="52.599998"
         width="10.1"
         y="131.2"
         x="451.89999"
         style="fill:#00c81e;fill-opacity:1;stroke-width:2.28366446" />
      <polygon
         id="polygon877"
         points="515.8,175 486.8,175 515.8,134.7 515.8,131.2 472.4,131.2 472.4,140 501.3,140 472.4,180.2 472.4,183.8 515.8,183.8 "
         style="fill:#00c81e;fill-opacity:1;stroke-width:2.28366446" />
      <path
         id="path879"
         d="m 431,147.7 0.2,0.2 V 167 l -0.2,0.2 c -3.2,4.8 -9,7.8 -15.3,7.8 -9.7,0 -16.7,-7.4 -16.7,-17.6 0,-10.2 7,-17.6 16.7,-17.6 6.3,0.1 12.2,3.1 15.3,7.9 m -42.4,9.8 c 0,15.5 11.6,27.2 27,27.2 5.4,0 10.3,-1.6 14,-4.6 l 1.5,-1.2 v 4.9 h 10.1 v -52.6 h -10.1 v 5.1 l -1.5,-1.2 c -3.8,-3.1 -8.7,-4.7 -14,-4.7 -15.4,0 -27,11.6 -27,27.1"
         inkscape:connector-curvature="0"
         style="fill:#00c81e;fill-opacity:1;stroke-width:2.28366446" />
      <path
         id="path881"
         d="m 358.8,130.4 c -5.9,0 -11.2,2.1 -14.6,5.7 l -1.6,1.8 v -29.5 h -10.1 v 75.4 h 10.1 v -33.5 -0.1 c 2.2,-6.6 7.2,-10.2 13.9,-10.2 8.7,0 13.4,6.8 13.4,13.1 v 30.7 H 380 v -31 c 0,-13.6 -8.3,-22.4 -21.2,-22.4"
         inkscape:connector-curvature="0"
         style="fill:#00c81e;fill-opacity:1;stroke-width:2.28366446" />
      <path
         id="path883"
         d="m 204.6,173.9 h -12.8 v -55.7 h 12.8 c 16.6,0 28.6,11.7 28.6,27.8 0,16.2 -12,27.9 -28.6,27.9 m 0,-65.5 H 181 v 75.4 h 23.6 c 22.6,0 39.6,-16.2 39.6,-37.7 0,-21.5 -17,-37.7 -39.6,-37.7"
         inkscape:connector-curvature="0"
         style="fill:#00c81e;fill-opacity:1;stroke-width:2.28366446" />
      <rect
         id="rect885"
         height="75.400002"
         width="10.1"
         y="15.5"
         x="377.20001"
         style="fill:#00c81e;fill-opacity:1;stroke-width:2.28366446" />
      <path
         id="path887"
         d="M 200.2,64 213.5,30.8 226.7,64 Z m 9.1,-48.5 -31,75.4 h 11.5 l 6.9,-17.2 h 33.6 l 6.9,17.2 h 11.6 l -31,-75.4 z"
         inkscape:connector-curvature="0"
         style="fill:#00c81e;fill-opacity:1;stroke-width:2.28366446" />
      <path
         id="path889"
         d="m 284.3,37.5 c -5.9,0 -11.2,2.1 -14.6,5.7 L 268.1,45 V 15.5 H 258 v 75.4 h 10.1 V 57.4 l 0.1,-0.1 c 2.2,-6.6 7.2,-10.2 13.9,-10.2 8.7,0 13.4,6.8 13.4,13.1 v 30.7 h 10.1 v -31 C 305.4,46.3 297.1,37.5 284.3,37.5"
         inkscape:connector-curvature="0"
         style="fill:#00c81e;fill-opacity:1;stroke-width:2.28366446" />
      <path
         id="path891"
         d="m 341.3,82.2 c -9.8,0 -16.8,-7.4 -16.8,-17.6 0,-10.2 7.1,-17.6 16.8,-17.6 9.6,0 16.8,7.6 16.8,17.6 0.1,10.1 -7.2,17.6 -16.8,17.6 m 0,-44.7 c -15.5,0 -27.3,11.7 -27.3,27.2 0,15.5 11.7,27.2 27.3,27.2 15.5,0 27.3,-11.7 27.3,-27.2 0,-15.6 -11.7,-27.2 -27.3,-27.2"
         inkscape:connector-curvature="0"
         style="fill:#00c81e;fill-opacity:1;stroke-width:2.28366446" />
      <path
         id="path893"
         d="m 438.3,55.1 v 19.1 l -0.2,0.2 c -3.2,4.8 -9,7.8 -15.3,7.8 -9.7,0 -16.7,-7.4 -16.7,-17.6 0,-10.2 7,-17.6 16.7,-17.6 6.2,0 12.1,3 15.3,7.8 z M 422.8,37.5 c -15.4,0 -27,11.7 -27,27.2 0,15.5 11.6,27.2 27,27.2 5.4,0 10.3,-1.6 14,-4.6 l 1.5,-1.2 V 91 h 10.1 V 15.5 h -10.1 v 27.9 l -1.5,-1.2 c -3.9,-3.1 -8.7,-4.7 -14,-4.7"
         inkscape:connector-curvature="0"
         style="fill:#00c81e;fill-opacity:1;stroke-width:2.28366446" />
      <path
         id="path895"
         d="m 71.6,11 c 2.7,0 4.9,-2.2 4.9,-4.9 0,-2.7 -2.2,-4.9 -5,-4.9 -2.7,0 -4.9,2.2 -4.9,4.9 0.1,2.7 2.3,4.9 5,4.9"
         inkscape:connector-curvature="0"
         style="fill:#00c81e;fill-opacity:1;stroke-width:2.28366446" />
      <path
         id="path897"
         d="m 71.6,11 c 2.7,0 4.9,-2.2 4.9,-4.9 0,-2.7 -2.2,-4.9 -5,-4.9 -2.7,0 -4.9,2.2 -4.9,4.9 0.1,2.7 2.3,4.9 5,4.9"
         inkscape:connector-curvature="0"
         style="fill:#00c81e;fill-opacity:1;stroke-width:2.28366446" />
      <path
         id="path899"
         d="M 36.1,36.6 H 46 c 0,0 -1.6,-1.6 -7.7,-8.1 -3.5,-3.7 -3.8,-6.6 0.6,-6.6 h 1 l 5,-7.5 c 0,0 -4.3,-0.1 -6.1,-0.1 -11.8,0 -13.9,11.6 -8,17.2 4.5,4.1 5.3,5.1 5.3,5.1"
         inkscape:connector-curvature="0"
         style="fill:#00c81e;fill-opacity:1;stroke-width:2.28366446" />
      <path
         id="path901"
         d="M 36.1,36.6 H 46 c 0,0 -1.6,-1.6 -7.7,-8.1 -3.5,-3.7 -3.8,-6.6 0.6,-6.6 h 1 l 5,-7.5 c 0,0 -4.3,-0.1 -6.1,-0.1 -11.8,0 -13.9,11.6 -8,17.2 4.5,4.1 5.3,5.1 5.3,5.1"
         inkscape:connector-curvature="0"
         style="fill:#00c81e;fill-opacity:1;stroke-width:2.28366446" />
      <path
         id="path903"
         d="m 104.4,21.6 c 4.4,0 4.1,2.9 0.6,6.6 -6.1,6.5 -7.6,8.1 -7.6,8.1 h 9.9 c 0,0 0.9,-0.9 5.3,-5.2 5.9,-5.6 3.7,-17.2 -8,-17.2 -1.9,0 -6.1,0.2 -6.1,0.2 l 5,7.5 z"
         inkscape:connector-curvature="0"
         style="fill:#00c81e;fill-opacity:1;stroke-width:2.28366446" />
      <path
         id="path905"
         d="m 104.4,21.6 c 4.4,0 4.1,2.9 0.6,6.6 -6.1,6.5 -7.6,8.1 -7.6,8.1 h 9.9 c 0,0 0.9,-0.9 5.3,-5.2 5.9,-5.6 3.7,-17.2 -8,-17.2 -1.9,0 -6.1,0.2 -6.1,0.2 l 5,7.5 z"
         inkscape:connector-curvature="0"
         style="fill:#00c81e;fill-opacity:1;stroke-width:2.28366446" />
      <polygon
         id="polygon907"
         points="71.7,36.1 75.5,32.8 75.4,14.1 67.8,14.1 67.9,32.9 "
         style="fill:#00c81e;fill-opacity:1;stroke-width:2.28366446" />
      <polygon
         id="polygon909"
         points="71.7,36.1 75.5,32.8 75.4,14.1 67.8,14.1 67.9,32.9 "
         style="fill:#00c81e;fill-opacity:1;stroke-width:2.28366446" />
      <path
         id="path911"
         d="m 131.4,113.8 c 1.9,9 1.3,18 -1.8,26.8 -3.9,10.8 -9.9,18.1 -17.4,20.9 -1.7,0.6 -4.8,1.6 -8.7,1.7 -2.5,0 -5.8,-0.9 -7.9,-1.9 -1.2,-0.5 -3.7,-1.7 -3.7,-1.7 -6.7,-3.7 -16.2,-11.2 -16.1,-16.2 0,-1.7 3.9,-4.5 7.2,-4.6 4.6,0 8.3,-3.8 8.3,-8.4 V 130 l -1.7,-7.3 -0.1,-0.2 c -1.2,-4 -4.3,-17.6 6.3,-23.7 L 105,94.4 101.7,87.5 92.3,92 92,92.1 c -10.5,6 -14.2,18.1 -10,32.5 l 1.4,6.2 c -0.1,0.2 -0.3,0.4 -0.6,0.4 -3.1,0 -6.6,1.2 -9.4,3.2 -0.6,0.4 -1.1,0.8 -1.6,1.3 -3.1,-2.8 -7.6,-4.4 -11.1,-4.3 -0.3,0 -0.5,-0.2 -0.6,-0.4 l 1.4,-6.2 C 65.6,110.4 61.8,98.3 51.2,92.4 l -9.6,-4.5 -3.2,6.9 9.2,4.3 c 10.6,6 7.7,19.6 6.5,23.7 l -1.7,7.5 v 0.4 c 0,4.6 3.8,8.3 8.4,8.3 3.2,0 7.2,2.7 7.2,4.5 0.1,5 -9.3,12.5 -16,16.3 -0.6,0.3 -1.3,0.7 -1.9,1 -2.2,1.3 -5.5,2.7 -9.4,2.7 -1,0 -4.6,0.1 -9.1,-1.6 -7.5,-2.9 -13.7,-10 -17.6,-20.8 -3.8,-10.3 -4.1,-20.8 -0.9,-31.3 0.9,-3.2 3.1,-7.9 3,-8 C 21,91.3 29.1,81.5 39.5,73.2 39.7,73.1 55.1,61.1 67.9,52.6 L 50.5,40.8 H 39.9 c 0,0 -0.9,0 -1.4,0 v 0 0 C 28.2,41.8 19.2,45.7 12,52.6 4.7,59.3 0.3,71.8 1.2,83.8 1.6,88.9 2.8,93.6 4.8,98 6,95.6 7.6,92.5 9.7,88.9 9.2,86.9 8.9,85 8.8,83.2 8.1,73.6 11.5,63.3 17.1,58.2 23.1,52.5 30.5,49.3 39,48.4 L 60.5,48.3 C 48.2,56.7 35,67 34.8,67.1 26.2,74 19.1,81.7 13.9,90.1 c -3.3,5.5 -6.5,12.6 -6.4,12.7 -5.2,13.6 -5.4,27.7 -0.6,40.9 6,16.4 15.3,22.8 22.1,25.3 3.3,1.2 6.9,1.8 10.5,1.8 5.5,0 10.3,-1.8 10.2,-1.8 1.6,-0.6 4.6,-1.7 6.1,-2.6 v 0 c 1.4,-0.8 10.8,-6.2 16.1,-13.3 5.3,6.9 14.4,12.1 16.1,13.1 0,0 4.1,2.4 7.4,3.4 3.7,1 7.7,1 9,1 3.6,0 7.1,-0.7 10.5,-1.9 6.8,-2.6 16.1,-9.1 21.9,-25.5 4.2,-11.7 4.4,-24 0.8,-36.1 -1.6,2.1 -3.6,4.4 -6.2,6.7"
         inkscape:connector-curvature="0"
         style="fill:#00c81e;fill-opacity:1;stroke-width:2.28366446" />
      <path
         id="path913"
         d="m 131.4,113.8 c 1.9,9 1.3,18 -1.8,26.8 -3.9,10.8 -9.9,18.1 -17.4,20.9 -1.7,0.6 -4.8,1.6 -8.7,1.7 -2.5,0 -5.8,-0.9 -7.9,-1.9 -1.2,-0.5 -3.7,-1.7 -3.7,-1.7 -6.7,-3.7 -16.2,-11.2 -16.1,-16.2 0,-1.7 3.9,-4.5 7.2,-4.6 4.6,0 8.3,-3.8 8.3,-8.4 V 130 l -1.7,-7.3 -0.1,-0.2 c -1.2,-4 -4.3,-17.6 6.3,-23.7 L 105,94.4 101.7,87.5 92.3,92 92,92.1 c -10.5,6 -14.2,18.1 -10,32.5 l 1.4,6.2 c -0.1,0.2 -0.3,0.4 -0.6,0.4 -3.1,0 -6.6,1.2 -9.4,3.2 -0.6,0.4 -1.1,0.8 -1.6,1.3 -3.1,-2.8 -7.6,-4.4 -11.1,-4.3 -0.3,0 -0.5,-0.2 -0.6,-0.4 l 1.4,-6.2 C 65.6,110.4 61.8,98.3 51.2,92.4 l -9.6,-4.5 -3.2,6.9 9.2,4.3 c 10.6,6 7.7,19.6 6.5,23.7 l -1.7,7.5 v 0.4 c 0,4.6 3.8,8.3 8.4,8.3 3.2,0 7.2,2.7 7.2,4.5 0.1,5 -9.3,12.5 -16,16.3 -0.6,0.3 -1.3,0.7 -1.9,1 -2.2,1.3 -5.5,2.7 -9.4,2.7 -1,0 -4.6,0.1 -9.1,-1.6 -7.5,-2.9 -13.7,-10 -17.6,-20.8 -3.8,-10.3 -4.1,-20.8 -0.9,-31.3 0.9,-3.2 3.1,-7.9 3,-8 C 21,91.3 29.1,81.5 39.5,73.2 39.7,73.1 55.1,61.1 67.9,52.6 L 50.5,40.8 H 39.9 c 0,0 -0.9,0 -1.4,0 v 0 0 C 28.2,41.8 19.2,45.7 12,52.6 4.7,59.3 0.3,71.8 1.2,83.8 1.6,88.9 2.8,93.6 4.8,98 6,95.6 7.6,92.5 9.7,88.9 9.2,86.9 8.9,85 8.8,83.2 8.1,73.6 11.5,63.3 17.1,58.2 23.1,52.5 30.5,49.3 39,48.4 L 60.5,48.3 C 48.2,56.7 35,67 34.8,67.1 26.2,74 19.1,81.7 13.9,90.1 c -3.3,5.5 -6.5,12.6 -6.4,12.7 -5.2,13.6 -5.4,27.7 -0.6,40.9 6,16.4 15.3,22.8 22.1,25.3 3.3,1.2 6.9,1.8 10.5,1.8 5.5,0 10.3,-1.8 10.2,-1.8 1.6,-0.6 4.6,-1.7 6.1,-2.6 v 0 c 1.4,-0.8 10.8,-6.2 16.1,-13.3 5.3,6.9 14.4,12.1 16.1,13.1 0,0 4.1,2.4 7.4,3.4 3.7,1 7.7,1 9,1 3.6,0 7.1,-0.7 10.5,-1.9 6.8,-2.6 16.1,-9.1 21.9,-25.5 4.2,-11.7 4.4,-24 0.8,-36.1 -1.6,2.1 -3.6,4.4 -6.2,6.7"
         inkscape:connector-curvature="0"
         style="fill:#00c81e;fill-opacity:1;stroke-width:2.28366446" />
      <path
         id="path915"
         d="m 55.3,38.5 24.3,17.4 c 0.3,0.2 1.9,1.2 1.9,1.2 11.1,7.6 21.9,15.8 22,15.9 9.2,7.1 16.5,15.5 21.6,24.5 2.1,-3 3.3,-6.3 3.9,-8.4 C 123.7,81 116.7,73.5 108.2,66.9 108.1,66.8 98.5,59.5 88,52.2 83.6,49.5 70.6,40.7 70.6,40.7 64.4,36.7 55.5,28.5 55.5,28.5 52.2,25.3 51.8,21.8 55.8,21.8 h 7.8 v -7.6 h -7.7 c -12.5,0.1 -14.4,10.4 -7.6,17.7 2.6,2.9 7,6.6 7,6.6"
         inkscape:connector-curvature="0"
         style="fill:#00c81e;fill-opacity:1;stroke-width:2.28366446" />
      <path
         id="path917"
         d="m 55.3,38.5 24.3,17.4 c 0.3,0.2 1.9,1.2 1.9,1.2 11.1,7.6 21.9,15.8 22,15.9 9.2,7.1 16.5,15.5 21.6,24.5 2.1,-3 3.3,-6.3 3.9,-8.4 C 123.7,81 116.7,73.5 108.2,66.9 108.1,66.8 98.5,59.5 88,52.2 83.6,49.5 70.6,40.7 70.6,40.7 64.4,36.7 55.5,28.5 55.5,28.5 52.2,25.3 51.8,21.8 55.8,21.8 h 7.8 v -7.6 h -7.7 c -12.5,0.1 -14.4,10.4 -7.6,17.7 2.6,2.9 7,6.6 7,6.6"
         inkscape:connector-curvature="0"
         style="fill:#00c81e;fill-opacity:1;stroke-width:2.28366446" />
      <path
         id="path919"
         d="m 89.9,171.7 c -4.6,3.8 -11.7,5.4 -17.9,5.5 -6.1,-0.1 -13,-1.6 -17.6,-5.1 -2.1,0.8 -5.2,1.9 -8.3,2.6 2.8,3.4 6.7,6 11.7,7.8 5.1,1.8 10.2,2.3 13.5,2.4 v 0 c 0.3,0 0.5,0 0.8,0 0.3,0 0.6,0 0.9,0 v 0 c 3.3,-0.1 8.4,-0.7 13.5,-2.5 5,-1.8 8.9,-4.5 11.7,-8 -3.4,-0.8 -6.4,-1.9 -8.3,-2.7"
         inkscape:connector-curvature="0"
         style="fill:#00c81e;fill-opacity:1;stroke-width:2.28366446" />
      <path
         id="path921"
         d="m 89.9,171.7 c -4.6,3.8 -11.7,5.4 -17.9,5.5 -6.1,-0.1 -13,-1.6 -17.6,-5.1 -2.1,0.8 -5.2,1.9 -8.3,2.6 2.8,3.4 6.7,6 11.7,7.8 5.1,1.8 10.2,2.3 13.5,2.4 v 0 c 0.3,0 0.5,0 0.8,0 0.3,0 0.6,0 0.9,0 v 0 c 3.3,-0.1 8.4,-0.7 13.5,-2.5 5,-1.8 8.9,-4.5 11.7,-8 -3.4,-0.8 -6.4,-1.9 -8.3,-2.7"
         inkscape:connector-curvature="0"
         style="fill:#00c81e;fill-opacity:1;stroke-width:2.28366446" />
      <path
         id="path923"
         d="M 130.9,52.1 C 123.7,45.5 115,41.6 105,40.6 l -0.9,-0.1 c -0.5,0 -1.4,0 -1.4,0 l -17.6,0.1 c 1.8,-1.4 3.6,-2.8 5.4,-4.3 0,0 0.3,-0.1 1.1,-0.9 0.8,-0.7 2.2,-2.4 2.2,-2.4 0.4,-0.4 0.8,-0.9 1.3,-1.4 C 102,24.3 100,14 87.5,14 h -7.7 v 7.6 h 7.8 c 4.2,0 2.9,3.6 0,7.3 -3.9,3.4 -8.1,6.6 -12.6,9.7 5.3,3.8 10.7,7.2 14.6,9.6 l 14.2,-0.1 c 8.5,0.8 15.9,4 22,9.6 5.6,5.1 9.1,15.3 8.5,24.9 -0.2,2.9 -0.8,6.4 -2.1,9.9 -1.4,3.7 -3.9,8.7 -8.3,12.2 0,0 -0.1,0.1 -0.1,0.1 -1.1,1 -2.2,1.9 -3.5,2.8 -20.1,14.1 -21.6,32.1 -22.4,41.7 -0.1,0.8 -0.1,1.6 -0.2,2.3 0,0.4 -0.1,0.9 -0.1,1.3 -0.1,1.2 -0.2,2.7 -0.5,4.2 1.9,1 4.6,1.9 7.5,1.6 0.3,-2 0.5,-3.7 0.6,-5.2 0,-0.4 0.1,-0.9 0.1,-1.2 0.1,-0.8 0.1,-1.6 0.2,-2.5 0.8,-9.5 2.1,-24 19,-36 0.1,-0.1 0.3,-0.3 0.4,-0.4 9.3,-6.7 12.9,-14.8 12.9,-14.9 0.1,-0.2 0.2,-0.3 0.3,-0.4 2.3,-4.7 3.6,-9.9 4,-15.3 0.6,-11.6 -3.9,-24.1 -11.2,-30.7"
         inkscape:connector-curvature="0"
         style="fill:#00c81e;fill-opacity:1;stroke-width:2.28366446" />
      <path
         id="path925"
         d="M 130.9,52.1 C 123.7,45.5 115,41.6 105,40.6 l -0.9,-0.1 c -0.5,0 -1.4,0 -1.4,0 l -17.6,0.1 c 1.8,-1.4 3.6,-2.8 5.4,-4.3 0,0 0.3,-0.1 1.1,-0.9 0.8,-0.7 2.2,-2.4 2.2,-2.4 0.4,-0.4 0.8,-0.9 1.3,-1.4 C 102,24.3 100,14 87.5,14 h -7.7 v 7.6 h 7.8 c 4.2,0 2.9,3.6 0,7.3 -3.9,3.4 -8.1,6.6 -12.6,9.7 5.3,3.8 10.7,7.2 14.6,9.6 l 14.2,-0.1 c 8.5,0.8 15.9,4 22,9.6 5.6,5.1 9.1,15.3 8.5,24.9 -0.2,2.9 -0.8,6.4 -2.1,9.9 -1.4,3.7 -3.9,8.7 -8.3,12.2 0,0 -0.1,0.1 -0.1,0.1 -1.1,1 -2.2,1.9 -3.5,2.8 -20.1,14.1 -21.6,32.1 -22.4,41.7 -0.1,0.8 -0.1,1.6 -0.2,2.3 0,0.4 -0.1,0.9 -0.1,1.3 -0.1,1.2 -0.2,2.7 -0.5,4.2 1.9,1 4.6,1.9 7.5,1.6 0.3,-2 0.5,-3.7 0.6,-5.2 0,-0.4 0.1,-0.9 0.1,-1.2 0.1,-0.8 0.1,-1.6 0.2,-2.5 0.8,-9.5 2.1,-24 19,-36 0.1,-0.1 0.3,-0.3 0.4,-0.4 9.3,-6.7 12.9,-14.8 12.9,-14.9 0.1,-0.2 0.2,-0.3 0.3,-0.4 2.3,-4.7 3.6,-9.9 4,-15.3 0.6,-11.6 -3.9,-24.1 -11.2,-30.7"
         inkscape:connector-curvature="0"
         style="fill:#00c81e;fill-opacity:1;stroke-width:2.28366446" />
      <path
         id="path927"
         d="m 46.9,157.8 c -0.3,-1.6 -0.4,-3.2 -0.6,-4.4 0,-0.5 -0.1,-0.9 -0.1,-1.3 -0.1,-0.7 -0.2,-1.5 -0.2,-2.3 -0.9,-9.6 -2.6,-27.6 -22.8,-41.5 -1.4,-0.9 -2.6,-1.9 -3.7,-2.9 -1.2,3 -2,5.8 -2.4,7.9 0.6,0.4 1.1,0.9 1.7,1.3 17.3,11.9 18.6,26.4 19.5,35.9 0.1,0.9 0.2,1.7 0.2,2.5 0,0.4 0.1,0.8 0.1,1.2 0.1,1.4 0.3,3.2 0.7,5.1 3,0.3 5.6,-0.5 7.6,-1.5"
         inkscape:connector-curvature="0"
         style="fill:#00c81e;fill-opacity:1;stroke-width:2.28366446" />
      <path
         id="path929"
         d="m 46.9,157.8 c -0.3,-1.6 -0.4,-3.2 -0.6,-4.4 0,-0.5 -0.1,-0.9 -0.1,-1.3 -0.1,-0.7 -0.2,-1.5 -0.2,-2.3 -0.9,-9.6 -2.6,-27.6 -22.8,-41.5 -1.4,-0.9 -2.6,-1.9 -3.7,-2.9 -1.2,3 -2,5.8 -2.4,7.9 0.6,0.4 1.1,0.9 1.7,1.3 17.3,11.9 18.6,26.4 19.5,35.9 0.1,0.9 0.2,1.7 0.2,2.5 0,0.4 0.1,0.8 0.1,1.2 0.1,1.4 0.3,3.2 0.7,5.1 3,0.3 5.6,-0.5 7.6,-1.5"
         inkscape:connector-curvature="0"
         style="fill:#00c81e;fill-opacity:1;stroke-width:2.28366446" />
    </g>
  </g>
</svg>
