<?xml version="1.0" encoding="utf-8"?>
<!-- Generator: Adobe Illustrator 12.0.0, SVG Export Plug-In . SVG Version: 6.00 Build 51448)  -->
<!DOCTYPE svg PUBLIC "-//W3C//DTD SVG 1.1//EN" "http://www.w3.org/Graphics/SVG/1.1/DTD/svg11.dtd" [
	<!ENTITY ns_svg "http://www.w3.org/2000/svg">
	<!ENTITY ns_xlink "http://www.w3.org/1999/xlink">
]>
<svg  version="1.1" id="Layer_1" xmlns="&ns_svg;" xmlns:xlink="&ns_xlink;" width="546.835" height="155.696"
	 viewBox="0 0 546.835 155.696" overflow="visible" enable-background="new 0 0 546.835 155.696" xml:space="preserve">
<g>
	<polygon fill="#E1233D" points="507.256,53.962 517.026,53.962 517.026,55.41 512.944,55.41 512.944,65.997 511.326,65.997 
		511.326,55.41 507.256,55.41 	"/>
	<path fill="#E1233D" d="M528.423,65.997v-7.104c0-0.356,0.051-1.876,0.051-3.003h-0.051l-3.364,10.107h-1.626l-3.392-10.083h-0.017
		c0,1.103,0.017,2.622,0.017,2.979v7.104h-1.56V53.962h2.324l3.443,10.175h0.031l3.407-10.175h2.31v12.035H528.423z"/>
	<path fill="#E1233D" d="M226.917,79.009c0-6.105,1.373-11.151,4.229-14.495c2.42-2.86,5.792-4.34,9.68-4.34s7.258,1.479,9.679,4.34
		c2.863,3.344,4.239,8.39,4.239,14.495c0,6.097-1.376,11.142-4.239,14.486c-2.421,2.856-5.791,4.348-9.679,4.348
		s-7.26-1.491-9.68-4.348C228.29,90.15,226.917,85.105,226.917,79.009 M263.316,57.227c-5.467-5.331-12.987-8.009-22.539-8.009
		c-9.571,0-17.089,2.678-22.527,8.009c-5.442,5.344-8.16,12.618-8.16,21.817c0,9.128,2.718,16.363,8.16,21.738
		c5.438,5.367,12.956,8.044,22.527,8.044c9.614,0,17.137-2.677,22.574-8.044c5.438-5.375,8.151-12.61,8.151-21.738
		C271.502,69.845,268.782,62.57,263.316,57.227"/>
	<path fill="#E1233D" d="M387.467,106.831c4.494,0,6.07-0.654,8.211-8.73l0.306-1.179H366.76V82.578h16.652
		c4.272,0,6.059-0.646,8.212-8.727l0.313-1.143H366.76V60.67h17.975c5.319,0,5.89-0.65,7.838-8.807l0.258-1.131h-43.088v56.099
		H387.467z"/>
	<path fill="#E1233D" d="M478.458,98.354c-3.84-0.04-8.818-0.639-14.146-3.563l-4.021,9.104l0.869,0.468
		c2.353,1.245,9.027,4.442,19.009,4.442c12.935,0,24.743-5.402,24.743-17.441c0-8.886-6.361-13.039-14.192-17.352
		c-7.807-4.303-13.02-6.549-12.924-10.543c0.068-2.769,3.285-4.026,8.112-3.936c6.168,0.111,9.857,1.448,12.881,3.059l4.32-8.655
		l-0.81-0.433c-2.175-1.158-8.398-4.105-18.677-4.105c-15.669,0-22.273,8.247-22.273,15.95c0,4.538,0.83,10.675,13.59,17.525
		c10.429,5.641,11.901,7.414,11.929,10.211C486.915,96.648,483.427,98.406,478.458,98.354"/>
	<path fill="#E1233D" d="M447.318,91.849c-3.062-4.308-5.49-7.807-7.39-10.742c6.255-2.157,10.539-6.882,10.539-14.899
		c0-5.953-2.371-9.766-6.72-12.344c-4.827-2.864-12.139-3.131-20.801-3.131h-18.842v56.103h16.593v-21.5h1.697
		c1.337,0,2.202,0.321,4.137,3.456c4.129,6.656,6.173,9.762,8.905,14.161c1.461,2.344,3.802,3.883,8.239,3.883h15.534
		C459.21,106.835,452.387,99.021,447.318,91.849 M429.539,75.105c-1.586,0.825-4.021,1.233-6.592,1.233h-2.249v-16.45h3.506
		c6.426,0,9.469,2.932,9.469,8.032C433.672,72.086,431.761,73.967,429.539,75.105"/>
	<path fill="#E1233D" d="M197.749,91.849c-3.059-4.308-5.49-7.807-7.401-10.742c6.26-2.157,10.532-6.882,10.532-14.899
		c0-5.953-2.369-9.766-6.713-12.344c-4.831-2.864-12.134-3.131-20.793-3.131h-18.854v56.103h16.604v-21.5h1.687
		c1.344,0,2.197,0.321,4.157,3.456c4.125,6.656,6.159,9.762,8.894,14.161c1.454,2.344,3.8,3.883,8.234,3.883h15.541
		C209.636,106.835,202.799,99.021,197.749,91.849 M179.966,75.105c-1.583,0.825-4.023,1.233-6.601,1.233h-2.242v-16.45h3.499
		c6.431,0,9.476,2.932,9.476,8.032C184.098,72.086,182.164,73.967,179.966,75.105"/>
	<path fill="#E1233D" d="M337.193,76.763l0.044-0.027h-30.025c0,0,1.251,4.371,1.444,5.098c1.226,4.363,2.146,4.748,4.674,4.779
		l0.023,0.032h7.925V98.16c-2.197,0.464-4.696,0.666-7.474,0.552c-10.07-0.397-18.452-7.462-18.452-19.914
		c0-11.444,7.773-18.857,19.802-18.857c6.354,0,11.745,1.32,16.363,3.438l5.779-9.175l-0.881-0.52
		c-3.649-2.154-9.651-4.269-19.834-4.55c-10.667-0.302-20.37,3.232-25.447,6.601c-4.757,3.213-12.705,10.567-12.705,23.765
		c0,7.7,2.355,14.086,6.993,18.974c6.303,6.641,17.018,10.337,29.421,10.337c10.382,0,17.823-1.959,22.504-4.673V76.763H337.193z"/>
	<path fill="#E1233D" d="M37.542,75.994c-4.835-8.235-6.636-15.109-6.636-21.286c0-7.362,4.515-16.661,6.481-18.6
		c9.163-9.029,19.362-12.881,33.817-12.881c13.775,0,26.485,5.775,35.946,14.34C82.883,25.925,54.441,52.415,41.89,69.15
		C39.772,72.011,38.908,73.582,37.542,75.994"/>
	<path fill="#E1233D" d="M68.919,111.937c-8.238,4.832-15.117,6.64-21.289,6.64c-7.362,0-16.66-4.518-18.597-6.492
		c-9.032-9.16-12.88-19.358-12.88-33.81c0-13.772,5.775-26.49,14.336-35.955C18.851,66.588,45.353,95.03,62.082,107.585
		C64.938,109.703,66.504,110.564,68.919,111.937"/>
	<path fill="#E1233D" d="M104.859,80.56c4.828,8.234,6.645,15.113,6.645,21.285c0,7.366-4.519,16.664-6.497,18.597
		c-9.16,9.028-19.359,12.888-33.798,12.888c-13.784,0-26.502-5.783-35.963-14.348c24.277,11.643,52.711-14.848,65.262-31.579
		C102.629,84.542,103.491,82.976,104.859,80.56"/>
	<path fill="#E1233D" d="M73.49,44.612c8.231-4.823,15.102-6.637,21.273-6.637c7.375,0,16.665,4.522,18.608,6.486
		c9.021,9.163,12.88,19.365,12.88,33.813c0,13.784-5.788,26.49-14.34,35.96c11.646-24.273-14.852-52.711-31.583-65.267
		C77.468,46.85,75.902,45.98,73.49,44.612"/>
</g>
</svg>
